<svg viewBox="0 0 11 15" fill="none" xmlns="http://www.w3.org/2000/svg">
    <path d="M5.5 0C6.9672 0.0248424 8.36602 0.63437 9.39488 1.69716C10.4237 2.75996 11.0002 4.19089 11 5.68143C11 7.93507 10.2169 8.56003 6.05932 14.696C5.99594 14.7897 5.91105 14.8664 5.81198 14.9194C5.71291 14.9723 5.60263 15 5.49068 15C5.37872 15 5.26845 14.9723 5.16938 14.9194C5.07031 14.8664 4.98541 14.7897 4.92203 14.696C0.764407 8.46534 0 7.84038 0 5.68143C-0.000203133 4.19089 0.576267 2.75996 1.60512 1.69716C2.63398 0.63437 4.0328 0.0248424 5.5 0ZM5.5 7.87825C5.95435 7.87824 6.39845 7.74113 6.77596 7.48433C7.15347 7.22752 7.44738 6.8626 7.62038 6.43585C7.79339 6.00911 7.8377 5.53978 7.7477 5.08742C7.65769 4.63505 7.43742 4.22004 7.11484 3.89503C6.79226 3.57003 6.38191 3.34968 5.93585 3.26195C5.48978 3.17422 5.02812 3.22306 4.60943 3.40228C4.19073 3.58149 3.83389 3.883 3.58416 4.26855C3.33444 4.6541 3.20309 5.10631 3.20678 5.5678C3.2117 6.18231 3.45547 6.76994 3.885 7.2027C4.31454 7.63546 4.89502 7.87827 5.5 7.87825Z" fill="#41A99E"/>
</svg>
